<?xml version="1.0" encoding="iso-8859-1"?>
<!-- Generator: Adobe Illustrator 19.0.0, SVG Export Plug-In . SVG Version: 6.00 Build 0)  -->
<svg version="1.1" id="Capa_1" xmlns="http://www.w3.org/2000/svg" xmlns:xlink="http://www.w3.org/1999/xlink" x="0px" y="0px"
	 viewBox="0 0 512.001 512.001" style="enable-background:new 0 0 512.001 512.001;" xml:space="preserve">
<g>
	<g>
		<path d="M324.259,0c-4.71,0-8.533,3.823-8.533,8.533s3.823,8.533,8.533,8.533c94.106,0,170.667,76.561,170.667,170.667
			c0,4.71,3.823,8.533,8.533,8.533c4.719,0,8.533-3.823,8.533-8.533C511.992,84.216,427.777,0,324.259,0z"/>
	</g>
</g>
<g>
	<g>
		<path d="M324.259,51.2c-4.71,0-8.533,3.823-8.533,8.533s3.823,8.533,8.533,8.533c65.877,0,119.467,53.589,119.467,119.467
			c0,4.71,3.823,8.533,8.533,8.533c4.719,0,8.533-3.823,8.533-8.533C460.792,112.453,399.548,51.2,324.259,51.2z"/>
	</g>
</g>
<g>
	<g>
		<path d="M324.259,102.4c-4.71,0-8.533,3.823-8.533,8.533s3.823,8.533,8.533,8.533c37.641,0,68.267,30.626,68.267,68.267
			c0,4.71,3.823,8.533,8.533,8.533c4.719,0,8.533-3.823,8.533-8.533C409.592,140.681,371.311,102.4,324.259,102.4z"/>
	</g>
</g>
<g>
	<g>
		<path d="M461.765,320.214c-23.219-3.055-46.114-8.755-68.045-16.922c-21.239-7.962-45.372-2.825-61.534,13.124l-26.974,26.914
			c-56.559-33.348-103.808-80.503-137.233-136.951l26.991-26.931c15.957-16.102,21.111-40.209,13.133-61.397
			c-8.183-21.896-13.892-44.74-16.964-67.994C187.051,21.231,162.091-0.111,132.916,0H58.258c-1.741,0-3.482,0.085-5.205,0.239
			C37.547,1.639,23.51,8.986,13.534,20.916C3.559,32.854-1.169,47.958,0.248,63.582c8.269,77.722,35.149,153.472,77.688,219.008
			c38.622,60.655,91.162,113.092,151.876,151.595c65.417,42.342,140.962,69.163,218.641,77.585c1.758,0.154,3.524,0.23,5.299,0.23
			c0.051,0,0.102,0,0.162,0c32.154-0.137,58.197-26.351,58.069-58.411v-74.402C512.658,349.688,491.119,324.344,461.765,320.214z
			 M494.917,378.88c0,0.068,0,0.145,0,0.213v74.539c0.085,22.682-18.338,41.216-41.062,41.31c-1.331-0.051-2.611-0.051-3.738-0.154
			c-74.871-8.124-147.849-34.031-211.106-74.974c-58.675-37.214-109.397-87.834-146.722-146.458
			C51.166,210.006,25.208,136.841,17.229,61.91c-0.99-10.94,2.347-21.606,9.404-30.046s16.981-13.636,27.955-14.626
			c1.22-0.111,2.441-0.171,3.669-0.171h74.735c0.137,0,0.273,0,0.41,0c20.446,0,37.965,15.147,40.823,35.302
			c3.234,24.448,9.25,48.563,17.894,71.68c5.641,14.984,1.997,32.017-9.242,43.358l-31.607,31.539
			c-2.731,2.722-3.294,6.921-1.391,10.266c36.164,63.488,88.909,116.122,152.508,152.209c3.345,1.903,7.526,1.323,10.24-1.382
			l31.573-31.505c11.409-11.255,28.501-14.882,43.537-9.25c23.142,8.619,47.3,14.635,71.714,17.843
			C480.188,340.045,495.437,357.991,494.917,378.88z"/>
	</g>
</g>
<g>
	<g>
		<path d="M128.001,34.134H58.258c-0.717,0-1.425,0.034-2.133,0.102c-8.695,0.785-14.012,5.717-16.401,8.576
			c-1.92,2.295-6.306,8.559-5.538,17.161c3.226,30.268,9.062,59.716,17.365,87.535c1.109,3.695,4.497,6.093,8.175,6.093
			c0.811,0,1.63-0.111,2.449-0.358c4.514-1.348,7.083-6.101,5.734-10.615c-8.004-26.812-13.636-55.228-16.734-84.318
			c-0.196-2.167,1.212-4.036,1.647-4.565c0.7-0.836,2.261-2.278,5.436-2.543h69.726c0.009,0,0.009,0,0.009,0
			c4.71,0,8.533-3.814,8.533-8.525C136.534,37.965,132.711,34.134,128.001,34.134z"/>
	</g>
</g>
<g>
	<g>
		<path d="M469.325,375.467c-4.71,0-8.533,3.823-8.533,8.533l-0.009,69.623c0.009,1.92-0.725,3.729-2.065,5.077
			c-1.34,1.348-3.115,2.091-4.804,2.099l-0.785-0.017c-29.158-3.166-57.335-8.781-83.746-16.691
			c-4.497-1.357-9.267,1.212-10.624,5.726c-1.357,4.514,1.212,9.267,5.726,10.624c27.401,8.209,56.61,14.029,86.955,17.323
			c0.7,0.068,2.125,0.102,2.33,0.102c6.46-0.026,12.518-2.56,17.067-7.142c4.548-4.591,7.04-10.684,7.014-17.135L477.859,384
			C477.859,379.29,474.036,375.467,469.325,375.467z"/>
	</g>
</g>
<g>
</g>
<g>
</g>
<g>
</g>
<g>
</g>
<g>
</g>
<g>
</g>
<g>
</g>
<g>
</g>
<g>
</g>
<g>
</g>
<g>
</g>
<g>
</g>
<g>
</g>
<g>
</g>
<g>
</g>
</svg>
