<svg height="495pt" viewBox="-83 0 495 495.80442" width="495pt" xmlns="http://www.w3.org/2000/svg" xmlns:xlink="http://www.w3.org/1999/xlink"><linearGradient id="a"><stop offset="0" stop-color="#00efd1"/><stop offset="1" stop-color="#00acea"/></linearGradient><linearGradient id="b" gradientUnits="userSpaceOnUse" x1="145.149732" x2="145.149732" xlink:href="#a" y1="21.57231" y2="480.86331"/><linearGradient id="c" gradientUnits="userSpaceOnUse" x1="201.649732" x2="201.649732" xlink:href="#a" y1="21.57231" y2="480.86331"/><linearGradient id="d" gradientUnits="userSpaceOnUse" x1="88.649732" x2="88.649732" xlink:href="#a" y1="21.57231" y2="480.86331"/><linearGradient id="e" gradientUnits="userSpaceOnUse" x1="165.652732" x2="165.652732" xlink:href="#a" y1="21.57231" y2="480.86331"/><linearGradient id="f" gradientUnits="userSpaceOnUse" x1="145.649732" x2="145.649732" xlink:href="#a" y1="21.57231" y2="480.86331"/><path d="m272.949219 187.804688h-255.375c-2.09375-.039063-4.117188.769531-5.609375 2.242187-1.488282 1.472656-2.324219 3.484375-2.316406 5.578125v251.199219c0 13.433593 4.691406 25.902343 13.277343 34.929687 8.453125 8.992188 20.253907 14.078125 32.59375 14.050782h179.480469c12.308594.023437 24.074219-5.066407 32.480469-14.050782 8.585937-9.035156 13.167969-21.5 13.167969-34.929687v-251.199219c.0625-2.074219-.726563-4.078125-2.179688-5.554688-1.453125-1.476562-3.449219-2.292968-5.519531-2.265624zm-8.300781 259.019531c0 18.691406-12.578126 32.980469-29.648438 32.980469h-179.480469c-17.070312 0-29.871093-14.289063-29.871093-32.980469v-243.019531h239zm0 0" fill="url(#b)"/><path d="m201.648438 436.039062c4.417968 0 8-3.582031 8-8v-188.777343c0-4.417969-3.582032-8-8-8-4.417969 0-8 3.582031-8 8v188.777343c0 4.417969 3.582031 8 8 8zm0 0" fill="url(#c)"/><path d="m88.648438 436.039062c4.417968 0 8-3.582031 8-8v-188.777343c0-4.417969-3.582032-8-8-8-4.417969 0-8 3.582031-8 8v188.777343c0 4.417969 3.582031 8 8 8zm0 0" fill="url(#d)"/><path d="m302.230469 85.8125-46.671875-10.222656 2.914062-13.3125c4.308594-19.667969-8.144531-39.105469-27.816406-43.414063l-82.289062-18.019531c-19.667969-4.308594-39.105469 8.144531-43.410157 27.816406l-2.917969 13.3125-46.671874-10.21875c-19.671876-4.3125-39.109376 8.144532-43.417969 27.8125l-11.363281 51.894532c-.945313 4.316406 1.785156 8.582031 6.101562 9.527343l302.464844 66.234375c2.074218.457032 4.242187.070313 6.027344-1.074218 1.789062-1.144532 3.046874-2.953126 3.5-5.023438l11.371093-51.898438c4.304688-19.667968-8.148437-39.105468-27.816406-43.414062zm-181.644531-53.730469c2.414062-11.039062 13.324218-18.027343 24.363281-15.609375l82.289062 18.019532c11.039063 2.417968 18.027344 13.324218 15.609375 24.363281l-2.914062 13.3125-122.265625-26.773438zm193.832031 93.722657-9.652344 44.078124-286.835937-62.8125 9.652343-44.078124c2.414063-11.039063 13.324219-18.027344 24.363281-15.609376l246.863282 54.058594c11.039062 2.417969 18.027344 13.324219 15.609375 24.363282zm0 0" fill="url(#e)"/><path d="m145.648438 436.039062c4.417968 0 8-3.582031 8-8v-188.777343c0-4.417969-3.582032-8-8-8-4.417969 0-8 3.582031-8 8v188.777343c0 4.417969 3.582031 8 8 8zm0 0" fill="url(#f)"/></svg>