<svg id="light" enable-background="new 0 0 24 24" height="512" viewBox="0 0 24 24" width="512" xmlns="http://www.w3.org/2000/svg"><g><path d="m22.5 6h-13c-.827 0-1.5-.673-1.5-1.5v-3c0-.827.673-1.5 1.5-1.5h13c.827 0 1.5.673 1.5 1.5v3c0 .827-.673 1.5-1.5 1.5zm-13-5c-.275 0-.5.224-.5.5v3c0 .276.225.5.5.5h13c.275 0 .5-.224.5-.5v-3c0-.276-.225-.5-.5-.5z"/></g><g><path d="m3 6c-1.654 0-3-1.346-3-3s1.346-3 3-3 3 1.346 3 3-1.346 3-3 3zm0-5c-1.103 0-2 .897-2 2s.897 2 2 2 2-.897 2-2-.897-2-2-2z"/></g><g><path d="m23.5 9h-10c-.276 0-.5-.224-.5-.5s.224-.5.5-.5h10c.276 0 .5.224.5.5s-.224.5-.5.5z"/></g><g><path d="m23.5 12h-10c-.276 0-.5-.224-.5-.5s.224-.5.5-.5h10c.276 0 .5.224.5.5s-.224.5-.5.5z"/></g><g><path d="m23.5 15h-10c-.276 0-.5-.224-.5-.5s.224-.5.5-.5h10c.276 0 .5.224.5.5s-.224.5-.5.5z"/></g><g><path d="m23.5 18h-10c-.276 0-.5-.224-.5-.5s.224-.5.5-.5h10c.276 0 .5.224.5.5s-.224.5-.5.5z"/></g><g><path d="m23.5 21h-10c-.276 0-.5-.224-.5-.5s.224-.5.5-.5h10c.276 0 .5.224.5.5s-.224.5-.5.5z"/></g><g><path d="m9.5 24h-8c-.827 0-1.5-.673-1.5-1.5v-13c0-.827.673-1.5 1.5-1.5h8c.827 0 1.5.673 1.5 1.5v13c0 .827-.673 1.5-1.5 1.5zm-8-15c-.275 0-.5.224-.5.5v13c0 .276.225.5.5.5h8c.275 0 .5-.224.5-.5v-13c0-.276-.225-.5-.5-.5z"/></g><g><path d="m23.5 24h-10c-.276 0-.5-.224-.5-.5s.224-.5.5-.5h10c.276 0 .5.224.5.5s-.224.5-.5.5z"/></g></svg>