<svg xmlns="http://www.w3.org/2000/svg" xmlns:xlink="http://www.w3.org/1999/xlink" version="1.1" x="0px" y="0px" viewBox="0 0 100 125" enable-background="new 0 0 100 100" xml:space="preserve"><path d="M23.992,45.044c0,0,2.617,6.979,4.361,9.597c1.082,1.623,2.617,4.363,8.727,4.363c6.107,0,7.643-2.74,8.725-4.363  c1.744-2.618,4.363-9.597,4.363-9.597c0.961,0,1.744-0.782,1.744-1.745v-3.49c0-0.965-0.783-1.746-1.744-1.746v-2.618  c0-6.106-3.455-11.343-13.088-11.343c-9.6,0-13.088,5.236-13.088,11.343v2.618c-0.873,0-1.748,0.781-1.748,1.746v3.49  C22.244,44.262,23.027,45.044,23.992,45.044z M64.063,75.399c-1.037-9.506-7.961-14.318-17.367-16.052  c-1.559,1.733-4.201,3.489-9.57,3.489c-5.387,0-8.029-1.766-9.586-3.505c-9.445,1.722-16.406,6.535-17.445,16.067  c-0.035,0.322-0.066,3.037-0.094,4.502l0.018-0.018L10,81.213C17.459,86.938,26.518,90,37.078,90  c10.447,0,19.654-3.172,27.078-8.787v-2.998h-0.027C64.107,76.933,64.084,75.618,64.063,75.399z M77.104,28.563V15.666h-4.876  v12.896H59.333v4.875h12.896v12.896h4.876V33.438H90v-4.875H77.104z"/><text x="0" y="115" fill="#000000" font-size="5px" font-weight="bold" font-family="'Helvetica Neue', Helvetica, Arial-Unicode, Arial, Sans-serif">Created by Chunk Icons</text><text x="0" y="120" fill="#000000" font-size="5px" font-weight="bold" font-family="'Helvetica Neue', Helvetica, Arial-Unicode, Arial, Sans-serif">from the Noun Project</text></svg>