<svg xmlns="http://www.w3.org/2000/svg" enable-background="new 0 0 48 48" viewBox="0 0 48 48"><path d="M18.01 27h-4c-6.34 0-11.5 5.16-11.5 11.5v3c0 .83.67 1.5 1.5 1.5h24c.83 0 1.5-.67 1.5-1.5v-3C29.51 32.16 24.35 27 18.01 27zM26.51 40h-21v-1.5c0-4.69 3.81-8.5 8.5-8.5h4c4.69 0 8.5 3.81 8.5 8.5V40zM16.01 26c5.79 0 10.5-4.71 10.5-10.5S21.8 5 16.01 5 5.51 9.71 5.51 15.5 10.22 26 16.01 26zM16.01 8c4.14 0 7.5 3.36 7.5 7.5s-3.36 7.5-7.5 7.5-7.5-3.36-7.5-7.5S11.87 8 16.01 8zM45.4 23.97c0-.01 0-.03-.01-.04 0 0 0 0 0-.01-.07-.17-.17-.31-.29-.44-.01-.01-.02-.03-.03-.05l-4-4c-.59-.59-1.54-.59-2.12 0s-.59 1.54 0 2.12L40.38 23h-9.38c-.83 0-1.5.67-1.5 1.5s.67 1.5 1.5 1.5h9.38l-1.44 1.44c-.59.59-.59 1.54 0 2.12.29.29.68.44 1.06.44s.77-.15 1.06-.44l4-4c.13-.13.22-.28.3-.44.02-.05.04-.1.05-.15.04-.12.06-.24.07-.37 0-.05.01-.1.01-.15C45.49 24.28 45.46 24.13 45.4 23.97z"/></svg>