<svg xmlns="http://www.w3.org/2000/svg" xmlns:xlink="http://www.w3.org/1999/xlink" version="1.1" x="0px" y="0px" viewBox="0 0 100 125" enable-background="new 0 0 100 100" xml:space="preserve"><path fill="#000000" d="M95.266,63H80V47.264C80,47.129,79.483,47,79.35,47H68.105C67.973,47,68,47.129,68,47.264V63H52.188  C52.056,63,52,63.049,52,63.182v11.243C52,74.558,52.056,75,52.188,75H68v15.343C68,90.476,67.973,91,68.105,91H79.35  c0.134,0,0.65-0.524,0.65-0.657V75h15.266C95.401,75,96,74.558,96,74.425V63.182C96,63.049,95.401,63,95.266,63z"/><path fill="#000000" d="M52.188,77C50.953,77,50,75.66,50,74.425V63.182C50,61.946,50.953,61,52.188,61H66v-9.745  c-3.917-4.638-9.15-8.166-15.157-9.99c6.024-3.312,10.108-9.683,10.108-17.002c0-10.727-8.763-19.422-19.57-19.422  c-10.807,0-19.568,8.696-19.568,19.422c0,7.32,4.082,13.691,10.109,17.002C18.876,45.225,9.4,57.154,9.4,71.261  c0,17.339,14.318,20.323,31.98,20.323c9.903,0,18.753-0.939,24.619-4.819V77H52.188z"/><text x="0" y="115" fill="#000000" font-size="5px" font-weight="bold" font-family="'Helvetica Neue', Helvetica, Arial-Unicode, Arial, Sans-serif">Created by Charlene Chen</text><text x="0" y="120" fill="#000000" font-size="5px" font-weight="bold" font-family="'Helvetica Neue', Helvetica, Arial-Unicode, Arial, Sans-serif">from the Noun Project</text></svg>